<?xml version="1.0" encoding="UTF-8" standalone="no"?>
<svg
   xmlns:dc="http://purl.org/dc/elements/1.1/"
   xmlns:cc="http://creativecommons.org/ns#"
   xmlns:rdf="http://www.w3.org/1999/02/22-rdf-syntax-ns#"
   xmlns:svg="http://www.w3.org/2000/svg"
   xmlns="http://www.w3.org/2000/svg"
   id="svg8"
   version="1.1"
   viewBox="0 0 168.79788 62.611086"
   height="62.611088mm"
   width="168.79788mm">
  <defs
     id="defs2" />
  <metadata
     id="metadata5">
    <rdf:RDF>
      <cc:Work
         rdf:about="">
        <dc:format>image/svg+xml</dc:format>
        <dc:type
           rdf:resource="http://purl.org/dc/dcmitype/StillImage" />
        <dc:title></dc:title>
      </cc:Work>
    </rdf:RDF>
  </metadata>
  <path
     style="fill:#e5edff;fill-opacity:1;stroke-width:0.10448127"
     d="m 139.1581,40.205726 -0.23615,-0.681774 0.10554,-3.101576 c 0.10712,-3.147793 0.0401,-4.041618 0.1484,-3.303514 1.10708,1.352767 2.94359,1.056078 3.83519,1.049005 l 2.44201,-0.02077 v -4.283734 c -0.1805,-1.692494 0.46617,-3.446709 -0.36368,-4.936739 -0.80853,-1.463533 -1.73034,-1.734002 -3.12127,-1.775678 -0.78412,-0.02259 -1.49619,-0.07038 -1.58239,-0.106229 -1.65526,-0.461445 -1.38738,-1.679396 -1.39751,-3.014542 l -0.013,-1.934681 0.83585,0.03297 0.83585,0.03297 v -1.149289 -1.149296 l -0.83585,0.03325 -0.83585,0.03325 0.0325,-1.271825 c 0.0431,-1.69191 1.16874,-1.706691 -0.13844,-1.609745 -3.30909,0.245412 -7.46057,1.609476 -9.82256,3.964358 -1.87261,1.866985 -3.16255,4.243933 -3.71767,6.850459 -0.3063,1.438209 -0.33638,3.986051 -0.0631,5.340649 1.11574,5.529611 5.30094,9.765272 10.70715,10.83626 1.57525,0.312066 3.39241,0.421411 3.67681,0.21899 z"
     id="path846-9" />
  <path
     style="fill:#d8e4fd;stroke-width:0.10448127"
     d="m 139.15808,40.205785 -0.23507,-0.167315 v -3.616094 c 0,-3.149614 -0.0401,-4.041618 -0.14841,-3.303514 -1.10707,1.352767 -2.94358,1.056078 -3.83519,1.049005 l -2.44201,-0.02077 v -4.283734 c 0.1805,-1.692494 -0.46616,-3.446709 0.36368,-4.936739 0.80853,-1.463533 1.73034,-1.734002 3.12127,-1.775678 0.78412,-0.02259 1.4962,-0.07038 1.5824,-0.106229 1.65526,-0.461445 1.3975,-3.014542 1.3975,-3.014542 0,0 0.0313,-3.38258 -0.0195,-5.372644 -0.0431,-1.69191 -0.0209,-1.719884 1.28622,-1.622939 3.30909,0.245413 6.31279,1.62267 8.67478,3.977553 1.87261,1.866984 3.16256,4.243932 3.71768,6.850458 0.30629,1.438209 0.33637,3.986051 0.0631,5.340649 -1.11575,5.529611 -5.30094,9.765272 -10.70715,10.83626 -1.57526,0.312066 -2.53488,0.368642 -2.81929,0.166221 z"
     id="path846" />
  <path
     style="fill:#bef089;stroke-width:0.09922259"
     d="m 114.0148,50.123653 c -0.0363,-0.03637 -0.0661,-2.799221 -0.0661,-6.139648 0,-5.192436 0.0209,-6.090874 0.14428,-6.193249 0.0944,-0.07831 0.73806,-0.137893 1.86043,-0.172207 5.05933,-0.154678 10.02423,1.250231 16.58108,4.691938 l 2.16445,1.136126 1.25873,-0.348929 c 1.61341,-0.447242 3.52042,-0.880568 5.02919,-1.142778 1.74929,-0.304009 4.45038,-0.599198 4.55279,-0.49755 0.14319,0.142108 0.21145,8.252997 0.0717,8.514206 l -0.11679,0.21824 h -15.70675 c -8.63872,0 -15.73653,-0.02978 -15.77291,-0.06615 z"
     id="path838" />
  <path
     style="fill:#aaeb6e;stroke-width:0.09922259"
     d="m 114.11433,50.024739 c -0.0846,-0.08465 -0.0849,-3.160108 -3.7e-4,-6.713769 l 0.0655,-2.761097 3.03495,0.06657 c 3.05157,0.06693 6.60208,-0.03525 9.19178,-0.264516 1.30922,-0.115909 1.35297,-0.113367 1.90775,0.110805 0.83927,0.339134 5.14164,2.451707 5.79849,2.847208 l 0.56724,0.341545 0.67305,-0.1998 c 1.18009,-0.35032 3.90142,-0.988678 5.33651,-1.251822 1.71564,-0.314584 4.63689,-0.657516 4.73898,-0.556314 0.0415,0.04117 0.0639,1.947435 0.0496,4.236141 l -0.0259,4.161286 -15.63552,0.02513 c -8.59954,0.0138 -15.66542,-0.0048 -15.70198,-0.04134 z"
     id="path836" />
  <path
     style="fill:#97d05b;stroke-width:0.09922259"
     d="m 114.15694,50.103057 c -0.11587,-0.07336 -0.13006,-0.544664 -0.0853,-2.832016 0.0296,-1.509209 0.0697,-2.759255 0.0894,-2.77789 0.0196,-0.01864 0.66013,0.0092 1.42338,0.06195 1.78673,0.123372 3.23341,-0.0053 4.56563,-0.406014 1.17185,-0.352502 2.76965,-0.620293 5.35802,-0.897994 2.70909,-0.290659 6.96088,-0.60434 7.16679,-0.528741 0.30688,0.112673 1.61441,0.859983 1.61441,0.922709 0,0.03311 -0.45767,0.206595 -1.01704,0.385503 -1.66632,0.532959 -4.22316,1.506944 -4.3467,1.655806 -0.13553,0.163304 0.0396,0.245398 1.19639,0.56077 0.59545,0.16234 1.05151,0.203742 2.28212,0.207169 1.91437,0.0053 2.75176,-0.160584 5.62454,-1.114449 3.12029,-1.036046 4.95401,-1.542735 6.65138,-1.837897 l 0.72224,-0.125597 v 3.342903 3.342898 l -9.09529,0.06597 c -12.53766,0.09094 -21.98365,0.08025 -22.14999,-0.02508 z"
     id="path832" />
  <path
     style="fill:#f96062;stroke-width:0.10448127"
     d="m 132.88466,29.785032 c 0.0283,-3.786031 0.0458,-4.128965 0.22783,-4.466572 0.39771,-0.737674 0.80589,-1.141358 1.49914,-1.482646 0.65525,-0.322577 0.76993,-0.343665 2.1621,-0.397532 2.0018,-0.07745 2.28189,-0.281481 2.47271,-1.801191 0.11915,-0.948865 0.39303,-1.538949 0.97833,-2.107792 0.81052,-0.787742 1.29576,-0.9075 3.5406,-0.873839 l 1.89668,0.02843 v 3.91805 c 0,3.603229 -0.016,3.95953 -0.19912,4.434326 -0.25424,0.659201 -0.90041,1.360233 -1.57287,1.706434 -0.47174,0.242861 -0.68491,0.277642 -2.04614,0.333867 -1.33673,0.05521 -1.55818,0.09027 -1.84075,0.291487 -0.4814,0.342785 -0.65098,0.671851 -0.7667,1.48774 -0.13432,0.947108 -0.48296,1.627559 -1.13363,2.212561 -0.78475,0.705565 -1.25434,0.817564 -3.42788,0.817564 H 132.854 Z"
     id="path830" />
  <path
     style="fill:#e4384f;stroke-width:0.10448127"
     d="m 139.23976,26.28491 c 0.004,-4.718852 0.16477,-5.715637 1.06295,-6.613813 0.18863,-0.188632 0.60184,-0.463918 0.91824,-0.611744 0.53719,-0.250981 0.6981,-0.27125 2.42983,-0.306147 l 1.85454,-0.03736 v 3.857343 c 0,4.345622 -0.0173,4.469072 -0.74292,5.2934 -0.22826,0.259309 -0.67549,0.598129 -0.99741,0.755631 -0.52742,0.25804 -0.7207,0.290022 -2.00755,0.332197 -1.4621,0.04792 -1.77794,0.126313 -2.14563,0.532599 -0.10933,0.120813 -0.23852,0.219662 -0.28708,0.219662 -0.0485,0 -0.0868,-1.539795 -0.085,-3.421765 z"
     id="path828" />
  <path
     d="M 40.783397,29.447411 V 7.3981665 h -7.166 L 27.932819,21.695725 c -0.34452,0.826848 -0.58568,1.688142 -0.68904,2.583895 l -0.72349,-2.583895 -5.58121,-14.2975585 h -7.23491 V 29.447411 h 4.85772 V 13.220546 l 6.2358,16.226865 h 4.85773 l 6.201348,-16.226865 v 16.226865 z"
     style="fill:#94c758;fill-opacity:1;stroke-width:1.43549764"
     id="path893" />
  <path
     d="m 60.862957,29.447411 v -9.991063 c 0,-1.309177 -0.10335,-2.377183 -0.31007,-3.238484 -0.20671,-0.8613 -0.58568,-1.688147 -1.13691,-2.446089 -0.55123,-0.757941 -1.41253,-1.309171 -2.54945,-1.688142 -1.17136,-0.344523 -2.61834,-0.551235 -4.37539,-0.551235 -2.96287,0 -4.99553,0.585683 -6.13245,1.757053 -1.13691,1.171366 -1.68814,2.756154 -1.68814,4.78882 l 4.68546,-0.03443 c 0,-0.895753 0.24116,-1.619241 0.72349,-2.101571 0.48233,-0.482324 1.30917,-0.757941 2.51499,-0.757941 2.30828,0 3.47965,1.136917 3.54856,3.376289 l -4.68547,0.413424 c -2.61835,0.241165 -4.51321,0.757947 -5.65012,1.550341 -1.17136,0.826848 -1.72259,2.032666 -1.72259,3.686355 0,1.825954 0.62013,3.204031 1.9293,4.134237 1.30918,0.9302 2.99732,1.378077 5.09889,1.378077 3.13513,0 5.3745,-1.033559 6.68367,-3.100678 l 1.06802,2.82506 z m -4.71991,-7.717233 c -0.0689,2.89396 -1.34363,4.30649 -3.89308,4.30649 -2.17047,0 -3.23848,-0.689036 -3.23848,-2.067113 0,-0.964658 1.03356,-1.584794 3.16958,-1.791506 z"
     style="fill:#94c758;fill-opacity:1;stroke-width:1.43549764"
     id="path895" />
  <path
     d="m 73.735607,15.838894 v -4.23759 c -0.31007,0 -0.62014,-0.03443 -0.89575,-0.03443 -2.34274,0 -4.20314,1.033559 -5.54677,3.031772 l -1.10246,-2.790607 h -1.96376 v 17.639395 h 4.71992 v -9.336496 c 0,-1.446982 0.31006,-2.583895 0.9991,-3.376289 0.51678,-0.620136 1.41253,-0.930206 2.68726,-0.930206 0.34452,0 0.68903,0 1.10246,0.03443 z"
     style="fill:#94c758;fill-opacity:1;stroke-width:1.43549764"
     id="path897" />
  <path
     d="m 93.402287,20.627713 c 0,-2.618348 -0.62014,-4.788819 -1.7915,-6.511414 -1.20582,-1.722601 -3.10067,-2.583901 -5.68457,-2.583901 -2.51499,0 -4.27204,0.757947 -5.3056,2.204924 V 5.0898835 h -4.68547 V 29.447411 h 2.03267 l 1.03355,-2.82506 c 1.27472,2.067118 3.54856,3.100677 6.78704,3.100677 1.75705,0 3.23848,-0.447876 4.40985,-1.343624 1.17136,-0.895753 1.99821,-1.998212 2.48054,-3.307389 0.48232,-1.309171 0.72349,-2.790607 0.72349,-4.444302 z m -4.82327,0 c 0,1.688148 -0.31007,2.962866 -0.89575,3.858619 -0.62014,0.895753 -1.6537,1.309172 -3.16958,1.309172 -1.58479,0 -2.61835,-0.413419 -3.13513,-1.274719 -0.55123,-0.826847 -0.7924,-2.136024 -0.7924,-3.893072 0,-0.826847 0.0344,-1.515883 0.13781,-2.067118 0.0689,-0.55123 0.24116,-1.068007 0.51678,-1.584789 0.24116,-0.482324 0.62014,-0.861295 1.17137,-1.10246 0.51678,-0.241164 1.20582,-0.37897 2.03267,-0.37897 1.51588,0 2.58389,0.447871 3.20403,1.343624 0.62013,0.895753 0.9302,2.136019 0.9302,3.789713 z"
     style="fill:#94c758;fill-opacity:1;stroke-width:1.43549764"
     id="path899" />
  <path
     d="M 101.11092,29.447411 V 5.0898835 H 96.390997 V 29.447411 Z"
     style="fill:#94c758;fill-opacity:1;stroke-width:1.43549764"
     id="path901" />
  <path
     d="m 120.78623,24.107361 h -4.99554 c -0.44787,1.309172 -1.51588,1.96376 -3.20403,1.96376 -2.30828,0 -3.583,-1.171365 -3.78971,-3.583001 h 11.95482 c 0.0344,-0.585683 0.0689,-1.136913 0.0689,-1.688148 0,-0.826847 -0.0689,-1.619242 -0.17226,-2.377183 -0.20671,-1.240271 -0.62013,-2.411636 -1.20581,-3.479648 -0.58569,-1.033554 -1.44699,-1.860402 -2.61835,-2.480537 -1.17137,-0.620136 -2.54945,-0.930206 -4.13424,-0.930206 -5.82238,0 -8.71634,3.031772 -8.71634,9.095315 0,6.063544 2.92842,9.095315 8.78525,9.095315 2.61835,0 4.5821,-0.516776 5.85683,-1.550336 1.24027,-1.033559 1.96376,-2.411636 2.17047,-4.065331 z m -4.92663,-5.236696 h -7.06265 c 0.0344,-1.068012 0.34452,-1.929312 0.9302,-2.618348 0.58568,-0.689041 1.44698,-1.033559 2.5839,-1.033559 1.17136,0 2.06711,0.344518 2.6528,1.033559 0.58568,0.689036 0.89575,1.584789 0.89575,2.618348 z"
     style="fill:#94c758;fill-opacity:1;stroke-width:1.43549764"
     id="path903" />
  <path
     d="M 79.995644,57.611088 V 35.561842 h -4.92663 v 8.819697 h -8.92305 v -8.819697 h -4.92663 v 22.049246 h 4.92663 v -9.267576 h 8.92305 v 9.267576 z"
     style="fill:#e4384f;fill-opacity:1;stroke-width:1.43549764"
     id="path906" />
  <path
     d="M 88.674844,57.611088 V 39.97169 h -4.75437 v 17.639398 z m 0.58568,-21.876987 c 0,-0.895748 -0.27561,-1.550336 -0.75794,-1.894854 -0.51678,-0.344524 -1.24027,-0.551236 -2.20493,-0.551236 -0.96465,0 -1.72259,0.206712 -2.23937,0.551236 -0.55123,0.344518 -0.7924,0.999106 -0.7924,1.894854 0,0.930206 0.24117,1.550336 0.75795,1.894859 0.51678,0.344518 1.27472,0.516777 2.27382,0.516777 0.96466,0 1.68815,-0.172259 2.20493,-0.516777 0.48233,-0.344523 0.75794,-0.999106 0.75794,-1.894859 z"
     style="fill:#e4384f;fill-opacity:1;stroke-width:1.43549764"
     id="path908" />
  <path
     d="M 96.920164,57.611088 V 33.253564 h -4.71992 v 24.357524 z"
     style="fill:#e4384f;fill-opacity:1;stroke-width:1.43549764"
     id="path910" />
  <path
     d="M 105.3986,57.611088 V 33.253564 h -4.71994 v 24.357524 z"
     style="fill:#e4384f;fill-opacity:1;stroke-width:1.43549764"
     id="path912" />
</svg>
